<svg width="24" height="24" viewBox="0 0 24 24"  xmlns="http://www.w3.org/2000/svg">
<path fill-rule="evenodd" clip-rule="evenodd" d="M12 24C18.6274 24 24 18.6274 24 12C24 5.37258 18.6274 0 12 0C5.37258 0 0 5.37258 0 12C0 18.6274 5.37258 24 12 24ZM19.6011 18.4983C21.0967 16.7505 22 14.4807 22 12C22 6.47715 17.5228 2 12 2C6.47715 2 2 6.47715 2 12C2 14.4807 2.90331 16.7505 4.39894 18.4983C5.19882 16.0666 7.13307 14.1498 9.5756 13.3739C8.0395 12.5207 7 10.8817 7 9C7 6.23858 9.23858 4 12 4C14.7614 4 17 6.23858 17 9C17 10.8817 15.9605 12.5207 14.4244 13.374C16.8669 14.1498 18.8012 16.0666 19.6011 18.4983ZM17.911 20.0668C17.2622 17.3972 14.8211 15 12 15C9.17888 15 6.73781 17.3972 6.08899 20.0668C7.7448 21.2822 9.78857 22 12 22C14.2114 22 16.2552 21.2822 17.911 20.0668ZM12 12C13.6569 12 15 10.6569 15 9C15 7.34315 13.6569 6 12 6C10.3431 6 9 7.34315 9 9C9 10.6569 10.3431 12 12 12Z" />
</svg>
